<svg width="18" height="23" viewBox="0 0 18 23" fill="none" xmlns="http://www.w3.org/2000/svg">
<path d="M7.12458 14.0881C6.99444 13.8889 6.82836 13.726 6.63824 13.6111C6.44254 13.4913 6.20936 13.4312 5.93871 13.4312C5.73627 13.4286 5.53593 13.4794 5.35243 13.5798C5.17463 13.679 5.02806 13.8379 4.91272 14.0573H4.8994V13.5407H4V19H4.94645V17.0834H4.95978C5.07512 17.2819 5.22293 17.432 5.40281 17.5336C5.58269 17.6348 5.77923 17.6861 5.99242 17.6861C6.24559 17.6861 6.46669 17.6289 6.65531 17.5141C6.84394 17.3992 7.00175 17.2452 7.12833 17.0526C7.25745 16.8539 7.35351 16.6284 7.41148 16.3879C7.47407 16.1337 7.50547 15.8704 7.50475 15.6058C7.50475 15.3189 7.47352 15.0442 7.41148 14.7807C7.3544 14.5305 7.25702 14.2954 7.12458 14.0881ZM6.51832 16.0511C6.49167 16.207 6.44587 16.3444 6.38175 16.4617C6.31721 16.579 6.23309 16.6743 6.12858 16.7472C6.02407 16.82 5.89415 16.8566 5.73884 16.8566C5.58769 16.8566 5.45903 16.8205 5.35243 16.7472C5.24866 16.6775 5.16069 16.5796 5.09594 16.4617C5.02855 16.3359 4.98115 16.1968 4.95603 16.0511C4.92698 15.8942 4.91247 15.7341 4.91272 15.5736C4.91272 15.4069 4.92605 15.2451 4.9527 15.0892C4.97935 14.9328 5.02473 14.7944 5.08927 14.6742C5.1534 14.5544 5.23793 14.4567 5.34244 14.3809C5.44654 14.3056 5.57645 14.2675 5.73218 14.2675C5.88333 14.2675 6.01074 14.3056 6.11526 14.3809C6.21977 14.4562 6.30513 14.5554 6.37175 14.6776C6.43837 14.8003 6.48584 14.9396 6.51499 15.096C6.54372 15.2524 6.5583 15.4113 6.5583 15.5731C6.5583 15.7358 6.54497 15.8947 6.51832 16.0511ZM8.78348 13.6071C8.59236 13.724 8.43371 13.8799 8.30713 14.0725C8.17741 14.2726 8.08029 14.4991 8.02065 14.7407C7.95595 14.9957 7.92341 15.2605 7.92405 15.5266C7.92405 15.8082 7.95611 16.0795 8.02065 16.34C8.08478 16.6005 8.18055 16.8317 8.30713 17.0321C8.43371 17.233 8.59444 17.3919 8.79014 17.5092C8.98543 17.6265 9.21236 17.6851 9.46969 17.6851C9.6794 17.6891 9.88736 17.6398 10.0793 17.5405C10.2592 17.4442 10.4045 17.2858 10.5157 17.0673H10.529V17.584H11.4284V12H10.4823V14.0334H10.469C10.3638 13.8369 10.2122 13.6807 10.0326 13.5837C9.8504 13.4826 9.65126 13.4305 9.4497 13.4312C9.19654 13.4312 8.9746 13.4898 8.78348 13.6071ZM10.0893 14.3775C10.1913 14.4503 10.2746 14.5456 10.3391 14.6629C10.4032 14.7798 10.449 14.9156 10.4757 15.0696C10.5023 15.2231 10.5157 15.3839 10.5157 15.5501C10.5157 15.7173 10.5023 15.8786 10.4757 16.035C10.4518 16.1823 10.4068 16.3238 10.3424 16.4534C10.28 16.5756 10.1971 16.6733 10.0926 16.7467C9.98809 16.8195 9.85818 16.8562 9.70286 16.8562C9.5563 16.8562 9.43055 16.8185 9.32645 16.7432C9.2221 16.6681 9.13334 16.5666 9.06662 16.4461C8.99574 16.3182 8.94497 16.1765 8.91672 16.0277C8.88585 15.8739 8.8702 15.7164 8.87009 15.5584C8.87009 15.3912 8.88424 15.2309 8.91339 15.0774C8.94212 14.9235 8.98876 14.7866 9.0533 14.6669C9.11742 14.5471 9.2032 14.4508 9.30979 14.3775C9.41639 14.3047 9.54755 14.2675 9.70286 14.2675C9.85818 14.268 9.98684 14.3047 10.0893 14.3775ZM12.3478 17.584H13.2938V14.2836H13.9467V13.5402H13.2938V13.2982C13.2938 13.1311 13.3217 13.0128 13.3771 12.9419C13.4325 12.872 13.5245 12.8363 13.6536 12.8363C13.7735 12.8363 13.8888 12.8441 14 12.8598V12.0313C13.9201 12.0264 13.8376 12.02 13.7535 12.0117C13.6693 12.0041 13.5848 12.0003 13.5003 12.0005C13.1139 12.0005 12.825 12.1149 12.6342 12.3446C12.4435 12.5738 12.3478 12.8681 12.3478 13.2283V13.5412H11.7815V14.2846H12.3478V17.584Z" fill="#EA0D14"/>
<path d="M10.8 0H0V23H18V6.13333L10.8 0ZM17.1 22.2333H0.9V0.766667H9.9V6.9H17.1V22.2333Z" fill="#EA0D14"/>
</svg>
