<svg width="20" height="26" viewBox="0 0 20 26" fill="none" xmlns="http://www.w3.org/2000/svg">
<path d="M11.4658 7.47098V0.830353H1.7002C1.05078 0.830353 0.52832 1.35281 0.52832 2.00223V24.6585C0.52832 25.3079 1.05078 25.8304 1.7002 25.8304H18.1064C18.7559 25.8304 19.2783 25.3079 19.2783 24.6585V8.64285H12.6377C11.9932 8.64285 11.4658 8.11551 11.4658 7.47098ZM14.2539 13.3304H15.4209C15.7969 13.3304 16.0752 13.677 15.9922 14.0481L14.1367 22.2513C14.0781 22.5198 13.8389 22.7054 13.5654 22.7054H11.71C11.4414 22.7054 11.207 22.5198 11.1436 22.261C9.88379 17.2073 10.1279 18.2962 9.89355 16.8655H9.86914C9.81543 17.5638 9.75195 17.7151 8.61914 22.261C8.55566 22.5198 8.32129 22.7054 8.05273 22.7054H6.24121C5.96777 22.7054 5.72852 22.5149 5.66992 22.2464L3.82422 14.0432C3.74121 13.677 4.01953 13.3304 4.39551 13.3304H5.5918C5.87012 13.3304 6.11426 13.5257 6.16797 13.804C6.92969 17.6126 7.14941 19.1507 7.19336 19.7708C7.27148 19.2727 7.5498 18.1741 8.62891 13.7796C8.69238 13.5159 8.92676 13.3352 9.2002 13.3352H10.6211C10.8945 13.3352 11.1289 13.5208 11.1924 13.7845C12.3643 18.6868 12.5986 19.8391 12.6377 20.1028C12.6279 19.5559 12.5107 19.2337 13.6924 13.7942C13.7412 13.5208 13.9805 13.3304 14.2539 13.3304ZM19.2783 6.7825V7.08035H13.0283V0.830353H13.3262C13.6387 0.830353 13.9365 0.952423 14.1563 1.17215L18.9365 5.95731C19.1562 6.17703 19.2783 6.47488 19.2783 6.7825Z" fill="#0080FF"/>
</svg>
