<svg width="20" height="20" viewBox="0 0 20 20" fill="none" xmlns="http://www.w3.org/2000/svg">
<path d="M10 19C14.9706 19 19 14.9706 19 10C19 5.02944 14.9706 1 10 1C5.02944 1 1 5.02944 1 10C1 14.9706 5.02944 19 10 19Z" stroke="white" stroke-linecap="round" stroke-linejoin="round"/>
<path d="M13 12.4006C12.5801 13.0721 11.9948 13.568 11.327 13.8182C10.6592 14.0684 9.94276 14.0601 9.27909 13.7946C8.61541 13.5291 8.03818 13.0197 7.62915 12.3387C7.22011 11.6577 7 10.8395 7 10C7 9.16056 7.22009 8.34238 7.62912 7.66134C8.03815 6.98031 8.61538 6.47095 9.27905 6.2054C9.94272 5.93986 10.6592 5.93158 11.327 6.18176C11.9948 6.43193 12.5801 6.92787 13 7.59933" stroke="white" stroke-linecap="round" stroke-linejoin="round"/>
</svg>
