<svg width="25" height="25" viewBox="0 0 25 25" fill="none" xmlns="http://www.w3.org/2000/svg">
<path d="M12.1685 6.48566L4.167 14.9604V24.107C4.167 24.3439 4.24016 24.571 4.37038 24.7385C4.5006 24.9059 4.67722 25 4.86139 25L9.72473 24.9838C9.90829 24.9826 10.084 24.888 10.2135 24.7207C10.343 24.5534 10.4156 24.3269 10.4156 24.0909V18.7493C10.4156 18.5125 10.4888 18.2853 10.619 18.1179C10.7493 17.9504 10.9259 17.8563 11.11 17.8563H13.8876C14.0718 17.8563 14.2484 17.9504 14.3786 18.1179C14.5088 18.2853 14.582 18.5125 14.582 18.7493V24.087C14.5817 24.2045 14.5995 24.3209 14.6342 24.4295C14.669 24.5382 14.7201 24.637 14.7846 24.7202C14.8491 24.8034 14.9258 24.8694 15.0101 24.9145C15.0945 24.9595 15.185 24.9827 15.2764 24.9827L20.138 25C20.3222 25 20.4988 24.9059 20.629 24.7385C20.7592 24.571 20.8324 24.3439 20.8324 24.107V14.9542L12.8326 6.48566C12.7385 6.38817 12.6214 6.33501 12.5006 6.33501C12.3798 6.33501 12.2626 6.38817 12.1685 6.48566ZM24.8078 12.2458L21.1796 8.39993V0.669718C21.1796 0.492097 21.1247 0.321752 21.027 0.196156C20.9294 0.0705595 20.7969 0 20.6588 0H18.2284C18.0903 0 17.9578 0.0705595 17.8602 0.196156C17.7625 0.321752 17.7076 0.492097 17.7076 0.669718V4.72207L13.8221 0.611117C13.4492 0.21653 12.9813 0.000788785 12.4984 0.000788785C12.0155 0.000788785 11.5476 0.21653 11.1747 0.611117L0.189004 12.2458C0.136268 12.3018 0.0926378 12.3707 0.0606055 12.4484C0.0285733 12.5262 0.00876702 12.6113 0.00231847 12.6989C-0.00413009 12.7865 0.00290544 12.8748 0.0230231 12.9589C0.0431407 13.043 0.0759461 13.1212 0.119565 13.189L1.22625 14.9191C1.26975 14.9871 1.32326 15.0434 1.3837 15.0848C1.44415 15.1262 1.51035 15.1519 1.57852 15.1603C1.64669 15.1688 1.71548 15.1598 1.78096 15.1341C1.84645 15.1083 1.90733 15.0661 1.96013 15.01L12.1685 4.19746C12.2626 4.09997 12.3798 4.04681 12.5006 4.04681C12.6214 4.04681 12.7385 4.09997 12.8326 4.19746L23.0414 15.01C23.0941 15.0661 23.1549 15.1083 23.2203 15.1342C23.2857 15.1601 23.3544 15.1691 23.4225 15.1608C23.4906 15.1525 23.5568 15.1271 23.6173 15.0859C23.6777 15.0447 23.7313 14.9886 23.7749 14.9208L24.8815 13.1906C24.9251 13.1225 24.9578 13.0439 24.9777 12.9594C24.9975 12.875 25.0043 12.7863 24.9974 12.6985C24.9905 12.6107 24.9703 12.5255 24.9377 12.4478C24.9052 12.3701 24.861 12.3015 24.8078 12.2458Z" fill="black"/>
</svg>
